<svg width="512" height="512" viewBox="0 0 24 24" fill="none" xmlns="http://www.w3.org/2000/svg">
  <!-- Основная папка с тенью -->
  <path d="M3 6C3 4.34315 4.34315 3 6 3H8.17157C8.70201 3 9.21071 3.21071 9.58579 3.58579L10.4142 4.41421C10.7893 4.78929 11.298 5 11.8284 5H18C19.6569 5 21 6.34315 21 8V18C21 19.6569 19.6569 21 18 21H6C4.34315 21 3 19.6569 3 18V6Z" fill="url(#gradient)" stroke="#312E81" stroke-width="0.5"/>
  
  <!-- Градиент для объёма -->
  <defs>
    <linearGradient id="gradient" x1="0%" y1="0%" x2="100%" y2="100%">
      <stop offset="0%" stop-color="#4F46E5" />
      <stop offset="100%" stop-color="#6366F1" />
    </linearGradient>
  </defs>

  <!-- Содержимое папки -->
  <rect x="6" y="8" width="12" height="2" rx="1" fill="#E0E7FF" />
  <rect x="6" y="11" width="10" height="2" rx="1" fill="#E0E7FF" />
  <rect x="6" y="14" width="8" height="2" rx="1" fill="#E0E7FF" />
  
  <!-- Декоративные элементы -->
  <circle cx="18" cy="9" r="1" fill="#A5B4FC" />
  <circle cx="15" cy="16" r="1" fill="#A5B4FC" />
  
  <!-- Бирка для стиля -->
  <path d="M15 5L17.5 7.5V5H15Z" fill="#312E81" opacity="0.8"/>
  
  <!-- Эффект блика -->
  <path d="M4 6C4 5.44772 4.44772 5 5 5H7.5C7.77614 5 8 5.22386 8 5.5C8 5.77614 7.77614 6 7.5 6H5C4.44772 6 4 5.55228 4 5Z" fill="white" opacity="0.3"/>
</svg>